<svg id="Castle--Streamline-Openmoji" viewBox="0 0 32 32" xmlns="http://www.w3.org/2000/svg" height="32" width="32">
  <desc>
    Castle Streamline Emoji: https://streamlinehq.com
  </desc>
  <g id="color">
    <path fill="#9b9b9a" stroke="none" d="M12.755866666666666 12.48551111111111h6.488266666666666v7.569644444444444H12.755866666666666Z" stroke-width="0.4444"></path>
    <path fill="#d0cfce" stroke="none" stroke-linecap="round" stroke-linejoin="round" stroke-miterlimit="10" stroke-width="0.8889" d="M24.65102222222222 27.624844444444445H7.348977777777777V18.973777777777777h3.7848v1.0813777777777778h2.7034666666666665l-0.0001333333333333333 -1.0813777777777778h4.325644444444444v1.0813777777777778h2.7034666666666665V18.973777777777777h3.7848v1.0813777777777778Z"></path>
    <path fill="#d0cfce" stroke="none" stroke-linecap="round" stroke-linejoin="round" stroke-miterlimit="10" stroke-width="0.8889" d="M1.9420888888888888 15.188977777777776h5.406888888888888v12.435866666666666H1.9420888888888888Z"></path>
    <path fill="#d0cfce" stroke="none" stroke-linecap="round" stroke-linejoin="round" stroke-miterlimit="10" stroke-width="0.8889" d="M24.65102222222222 15.188977777777776h5.406888888888888v12.435866666666666H24.65102222222222Z"></path>
    <path fill="#d0cfce" stroke="none" stroke-linecap="round" stroke-linejoin="round" stroke-miterlimit="10" stroke-width="0.8889" d="M0.8606666666666667 11.944844444444444h7.569688888888889v3.244133333333333H0.8606666666666667Z"></path>
    <path fill="#d0cfce" stroke="none" stroke-linecap="round" stroke-linejoin="round" stroke-miterlimit="10" stroke-width="0.8889" d="M12.48551111111111 9.782088888888888h7.0289777777777775v3.244133333333333H12.48551111111111Z"></path>
    <path fill="#d0cfce" stroke="none" stroke-linecap="round" stroke-linejoin="round" stroke-miterlimit="10" stroke-width="0.8889" d="M23.569644444444442 11.944844444444444h7.569644444444444v3.244133333333333H23.569644444444442Z"></path>
    <path fill="#ea5a47" stroke="none" stroke-linecap="round" stroke-linejoin="round" stroke-miterlimit="10" stroke-width="0.8889" d="m16 4.375155555555555 -2.433111111111111 5.406933333333333h4.866222222222222Z"></path>
    <path fill="#ea5a47" stroke="none" stroke-linecap="round" stroke-linejoin="round" stroke-miterlimit="10" stroke-width="0.8889" d="m4.645511111111111 6.537911111111111 -2.9737777777777774 5.406933333333333h5.947555555555555Z"></path>
    <path fill="#ea5a47" stroke="none" stroke-linecap="round" stroke-linejoin="round" stroke-miterlimit="10" stroke-width="0.8889" d="m27.354488888888888 6.537911111111111 -2.9737777777777774 5.406933333333333h5.947555555555555Z"></path>
    <path fill="#a57939" stroke="none" stroke-linecap="round" stroke-linejoin="round" stroke-miterlimit="10" stroke-width="0.8889" d="M18.43311111111111 27.624844444444445h-4.866222222222222v-3.244177777777778c0 -0.8958666666666666 0.7262222222222221 -1.6220444444444444 1.622088888888889 -1.6220444444444444h1.6220444444444444c0.8958666666666666 0 1.622088888888889 0.7261777777777777 1.622088888888889 1.6220444444444444v3.244177777777778Z"></path>
  </g>
  <g id="hair"></g>
  <g id="skin"></g>
  <g id="skin-shadow"></g>
  <g id="line">
    <path fill="none" stroke="#000000" stroke-linecap="round" stroke-linejoin="round" stroke-miterlimit="10" stroke-width="0.8889" d="M13.296533333333333 16.811022222222224V13.026222222222222h5.406933333333333v3.784755555555556"></path>
    <path fill="none" stroke="#000000" stroke-linecap="round" stroke-linejoin="round" stroke-miterlimit="10" stroke-width="0.8889" d="M16.540666666666667 16.811022222222224h-1.0813777777777778v-1.6220444444444444c0 -0.29862222222222223 0.24208888888888885 -0.540711111111111 0.540711111111111 -0.540711111111111h0"></path>
    <path fill="none" stroke="#000000" stroke-linecap="round" stroke-linejoin="round" stroke-miterlimit="10" stroke-width="0.8889" d="M24.65102222222222 27.624844444444445H7.348977777777777V18.973777777777777h3.7848v1.0813777777777778h2.7034666666666665l-0.0001333333333333333 -1.0813777777777778h4.325644444444444v1.0813777777777778h2.7034666666666665V18.973777777777777h3.7848v1.0813777777777778Z"></path>
    <path fill="none" stroke="#000000" stroke-linecap="round" stroke-linejoin="round" stroke-miterlimit="10" stroke-width="0.8889" d="M1.9420888888888888 15.188977777777776h5.406888888888888v12.435866666666666H1.9420888888888888Z"></path>
    <path fill="none" stroke="#000000" stroke-linecap="round" stroke-linejoin="round" stroke-miterlimit="10" stroke-width="0.8889" d="M24.65102222222222 15.188977777777776h5.406888888888888v12.435866666666666H24.65102222222222Z"></path>
    <path fill="none" stroke="#000000" stroke-linecap="round" stroke-linejoin="round" stroke-miterlimit="10" stroke-width="0.8889" d="M0.8606666666666667 11.944844444444444h7.569688888888889v3.244133333333333H0.8606666666666667Z"></path>
    <path fill="none" stroke="#000000" stroke-linecap="round" stroke-linejoin="round" stroke-miterlimit="10" stroke-width="0.8889" d="M12.48551111111111 9.782088888888888h7.0289777777777775v3.244133333333333H12.48551111111111Z"></path>
    <path fill="none" stroke="#000000" stroke-linecap="round" stroke-linejoin="round" stroke-miterlimit="10" stroke-width="0.8889" d="M23.569644444444442 11.944844444444444h7.569644444444444v3.244133333333333H23.569644444444442Z"></path>
    <path fill="none" stroke="#000000" stroke-linecap="round" stroke-linejoin="round" stroke-miterlimit="10" stroke-width="0.8889" d="m16 4.375155555555555 -2.433111111111111 5.406933333333333h4.866222222222222Z"></path>
    <path fill="none" stroke="#000000" stroke-linecap="round" stroke-linejoin="round" stroke-miterlimit="10" stroke-width="0.8889" d="m4.645511111111111 6.537911111111111 -2.9737777777777774 5.406933333333333h5.947555555555555Z"></path>
    <path fill="none" stroke="#000000" stroke-linecap="round" stroke-linejoin="round" stroke-miterlimit="10" stroke-width="0.8889" d="m27.354488888888888 6.537911111111111 -2.9737777777777774 5.406933333333333h5.947555555555555Z"></path>
    <path fill="none" stroke="#000000" stroke-linecap="round" stroke-linejoin="round" stroke-miterlimit="10" stroke-width="0.8889" d="M18.43311111111111 27.624844444444445h-4.866222222222222v-3.244177777777778c0 -0.8958666666666666 0.7262222222222221 -1.6220444444444444 1.622088888888889 -1.6220444444444444h1.6220444444444444c0.8958666666666666 0 1.622088888888889 0.7261777777777777 1.622088888888889 1.6220444444444444v3.244177777777778Z"></path>
    <path fill="none" stroke="#000000" stroke-linecap="round" stroke-linejoin="round" stroke-miterlimit="10" stroke-width="0.8889" d="M16 22.75862222222222v4.866222222222222"></path>
    <path fill="none" stroke="#000000" stroke-linecap="round" stroke-linejoin="round" stroke-miterlimit="10" stroke-width="0.8889" d="M5.186222222222222 19.514488888888888H4.104844444444445v-1.622088888888889c0 -0.29862222222222223 0.24204444444444442 -0.5406666666666666 0.5406666666666666 -0.5406666666666666h0"></path>
    <path fill="none" stroke="#000000" stroke-linecap="round" stroke-linejoin="round" stroke-miterlimit="10" stroke-width="0.8889" d="M27.895155555555554 19.514488888888888H26.813777777777776v-1.622088888888889c0 -0.29862222222222223 0.24208888888888885 -0.5406666666666666 0.540711111111111 -0.5406666666666666h0"></path>
  </g>
</svg>